<?xml version="1.0" encoding="UTF-8"?>
<svg xmlns="http://www.w3.org/2000/svg" width="800" height="500" viewBox="0 0 800 500">
  <defs>
    <style>
      text { font-family: 'Segoe UI', Arial, sans-serif; }
    </style>
    <!-- Arrow marker -->
    <marker id="arrowW" markerWidth="8" markerHeight="6" refX="8" refY="3" orient="auto">
      <path d="M 0 0 L 8 3 L 0 6 Z" fill="#e6edf3"/>
    </marker>
    <marker id="arrowB" markerWidth="8" markerHeight="6" refX="8" refY="3" orient="auto">
      <path d="M 0 0 L 8 3 L 0 6 Z" fill="#58a6ff"/>
    </marker>
    <!-- Laser beam gradient -->
    <linearGradient id="laserGrad" x1="0%" y1="0%" x2="100%" y2="0%">
      <stop offset="0%" stop-color="#da3633" stop-opacity="0.9"/>
      <stop offset="100%" stop-color="#da3633" stop-opacity="0.3"/>
    </linearGradient>
    <!-- Lens gradient -->
    <linearGradient id="lensGrad" x1="0%" y1="0%" x2="100%" y2="0%">
      <stop offset="0%" stop-color="#58a6ff" stop-opacity="0.1"/>
      <stop offset="50%" stop-color="#58a6ff" stop-opacity="0.4"/>
      <stop offset="100%" stop-color="#58a6ff" stop-opacity="0.1"/>
    </linearGradient>
  </defs>

  <!-- Background -->
  <rect width="800" height="500" fill="#0d1117"/>

  <!-- Title -->
  <text x="400" y="30" fill="#e6edf3" font-size="16" font-weight="bold" text-anchor="middle">4f Optical System: SLM to Focal Plane</text>

  <!-- Optical axis -->
  <line x1="30" y1="200" x2="770" y2="200" stroke="#30363d" stroke-width="1" stroke-dasharray="4,4"/>
  <text x="780" y="204" fill="#30363d" font-size="9">z</text>

  <!-- Laser source -->
  <rect x="40" y="170" width="50" height="60" rx="4" fill="#161b22" stroke="#da3633" stroke-width="1.5"/>
  <text x="65" y="195" fill="#da3633" font-size="10" text-anchor="middle">Laser</text>
  <text x="65" y="207" fill="#da3633" font-size="8" text-anchor="middle">632 nm</text>
  <!-- Beam from laser to SLM -->
  <rect x="90" y="190" width="120" height="20" fill="url(#laserGrad)" opacity="0.3"/>
  <line x1="90" y1="190" x2="210" y2="190" stroke="#da3633" stroke-width="1" opacity="0.6"/>
  <line x1="90" y1="210" x2="210" y2="210" stroke="#da3633" stroke-width="1" opacity="0.6"/>

  <!-- SLM -->
  <rect x="210" y="140" width="30" height="120" rx="3" fill="#161b22" stroke="#f0883e" stroke-width="1.5"/>
  <!-- SLM pixel pattern -->
  <rect x="215" y="148" width="20" height="8" fill="#f0883e" opacity="0.3"/>
  <rect x="215" y="160" width="20" height="8" fill="#f0883e" opacity="0.5"/>
  <rect x="215" y="172" width="20" height="8" fill="#f0883e" opacity="0.2"/>
  <rect x="215" y="184" width="20" height="8" fill="#f0883e" opacity="0.6"/>
  <rect x="215" y="196" width="20" height="8" fill="#f0883e" opacity="0.4"/>
  <rect x="215" y="208" width="20" height="8" fill="#f0883e" opacity="0.7"/>
  <rect x="215" y="220" width="20" height="8" fill="#f0883e" opacity="0.3"/>
  <rect x="215" y="232" width="20" height="8" fill="#f0883e" opacity="0.5"/>
  <text x="225" y="135" fill="#f0883e" font-size="11" font-weight="bold" text-anchor="middle">SLM</text>
  <text x="225" y="275" fill="#8b949e" font-size="9" text-anchor="middle">phi(x,y)</text>

  <!-- Phase-modulated beam (diverging rays) -->
  <line x1="240" y1="160" x2="390" y2="150" stroke="#da3633" stroke-width="0.8" opacity="0.4"/>
  <line x1="240" y1="175" x2="390" y2="170" stroke="#da3633" stroke-width="0.8" opacity="0.4"/>
  <line x1="240" y1="190" x2="390" y2="190" stroke="#da3633" stroke-width="0.8" opacity="0.4"/>
  <line x1="240" y1="205" x2="390" y2="210" stroke="#da3633" stroke-width="0.8" opacity="0.4"/>
  <line x1="240" y1="225" x2="390" y2="240" stroke="#da3633" stroke-width="0.8" opacity="0.4"/>

  <!-- Fourier Lens -->
  <ellipse cx="400" cy="200" rx="12" ry="70" fill="url(#lensGrad)" stroke="#58a6ff" stroke-width="1.5"/>
  <text x="400" y="125" fill="#58a6ff" font-size="11" font-weight="bold" text-anchor="middle">Lens (f)</text>

  <!-- Converging rays to focal plane -->
  <line x1="412" y1="150" x2="560" y2="185" stroke="#da3633" stroke-width="0.8" opacity="0.4"/>
  <line x1="412" y1="170" x2="560" y2="190" stroke="#da3633" stroke-width="0.8" opacity="0.4"/>
  <line x1="412" y1="190" x2="560" y2="195" stroke="#da3633" stroke-width="0.8" opacity="0.4"/>
  <line x1="412" y1="210" x2="560" y2="200" stroke="#da3633" stroke-width="0.8" opacity="0.4"/>
  <line x1="412" y1="240" x2="560" y2="210" stroke="#da3633" stroke-width="0.8" opacity="0.4"/>

  <!-- Focal plane -->
  <line x1="560" y1="140" x2="560" y2="260" stroke="#3fb950" stroke-width="1.5" stroke-dasharray="5,3"/>
  <text x="560" y="135" fill="#3fb950" font-size="11" font-weight="bold" text-anchor="middle">Focal Plane</text>

  <!-- Trap spots in focal plane -->
  <circle cx="560" cy="185" r="4" fill="#3fb950" opacity="0.9"/>
  <circle cx="560" cy="200" r="4" fill="#3fb950" opacity="0.9"/>
  <circle cx="560" cy="215" r="4" fill="#3fb950" opacity="0.9"/>
  <text x="560" y="275" fill="#8b949e" font-size="9" text-anchor="middle">I(u,v)</text>

  <!-- Microscope objective -->
  <ellipse cx="630" cy="200" rx="10" ry="50" fill="url(#lensGrad)" stroke="#58a6ff" stroke-width="1.5"/>
  <text x="630" y="145" fill="#58a6ff" font-size="9" text-anchor="middle">Objective</text>

  <!-- Sample plane -->
  <line x1="720" y1="160" x2="720" y2="240" stroke="#3fb950" stroke-width="2"/>
  <text x="720" y="155" fill="#3fb950" font-size="10" font-weight="bold" text-anchor="middle">Sample</text>
  <!-- Trapped particles -->
  <circle cx="720" cy="185" r="5" fill="none" stroke="#e6edf3" stroke-width="1"/>
  <circle cx="720" cy="200" r="5" fill="none" stroke="#e6edf3" stroke-width="1"/>
  <circle cx="720" cy="215" r="5" fill="none" stroke="#e6edf3" stroke-width="1"/>
  <circle cx="720" cy="185" r="2" fill="#e6edf3" opacity="0.6"/>
  <circle cx="720" cy="200" r="2" fill="#e6edf3" opacity="0.6"/>
  <circle cx="720" cy="215" r="2" fill="#e6edf3" opacity="0.6"/>

  <!-- Distance labels -->
  <!-- f distance SLM to lens -->
  <line x1="225" y1="290" x2="225" y2="295" stroke="#8b949e" stroke-width="0.5"/>
  <line x1="400" y1="290" x2="400" y2="295" stroke="#8b949e" stroke-width="0.5"/>
  <line x1="225" y1="293" x2="400" y2="293" stroke="#8b949e" stroke-width="0.5" marker-end="url(#arrowW)" marker-start="url(#arrowW)"/>
  <text x="312" y="308" fill="#8b949e" font-size="9" text-anchor="middle">f</text>
  <!-- f distance lens to focal plane -->
  <line x1="400" y1="290" x2="400" y2="295" stroke="#8b949e" stroke-width="0.5"/>
  <line x1="560" y1="290" x2="560" y2="295" stroke="#8b949e" stroke-width="0.5"/>
  <line x1="400" y1="293" x2="560" y2="293" stroke="#8b949e" stroke-width="0.5"/>
  <text x="480" y="308" fill="#8b949e" font-size="9" text-anchor="middle">f</text>

  <!-- Fourier Transform relationship box -->
  <rect x="100" y="340" width="600" height="140" rx="8" fill="#161b22" stroke="#30363d" stroke-width="1"/>
  <text x="400" y="365" fill="#58a6ff" font-size="12" font-weight="bold" text-anchor="middle">Fourier Transform Relationship</text>

  <text x="120" y="390" fill="#e6edf3" font-size="11">SLM plane:</text>
  <text x="230" y="390" fill="#f0883e" font-size="11">A(x,y) * exp(i * phi(x,y))</text>
  <text x="520" y="390" fill="#8b949e" font-size="10">amplitude x phase modulation</text>

  <!-- FT arrow -->
  <line x1="310" y1="400" x2="310" y2="420" stroke="#58a6ff" stroke-width="1.5" marker-end="url(#arrowB)"/>
  <text x="340" y="415" fill="#58a6ff" font-size="10" font-weight="bold">FT{ }</text>

  <text x="120" y="440" fill="#e6edf3" font-size="11">Focal plane:</text>
  <text x="230" y="440" fill="#3fb950" font-size="11">E(u,v) = FT{ A(x,y) * exp(i * phi(x,y)) }</text>

  <text x="120" y="465" fill="#e6edf3" font-size="11">Trap intensity:</text>
  <text x="230" y="465" fill="#3fb950" font-size="11">I(u,v) = |E(u,v)|^2</text>
  <text x="520" y="465" fill="#8b949e" font-size="10">phase-only control of intensity pattern</text>
</svg>
